<?xml version="1.0" encoding="UTF-8"?>
<svg version="1.1" xmlns="http://www.w3.org/2000/svg" width="85" height="118">
<path d="M0 0 C3 0.25 3 0.25 5 2.25 C5.6759249 5.16472734 6.25110941 8.04117854 6.76953125 10.984375 C7.10419782 12.77355356 7.43950478 14.56261244 7.77539062 16.3515625 C8.2962335 19.1722024 8.811353 21.99356518 9.31469727 24.81738281 C9.80395171 27.54305826 10.31640409 30.26358292 10.83203125 32.984375 C11.0463958 34.24093903 11.0463958 34.24093903 11.26509094 35.52288818 C12.34190216 41.09835928 13.90414122 44.26424706 18 48.25 C21.65070448 49.46690149 25.04092749 49.42345115 28.84375 49.4609375 C30.4153752 49.48899485 31.98698966 49.51765923 33.55859375 49.546875 C36.03401516 49.58820583 38.50923351 49.62509798 40.98486328 49.65136719 C43.37574463 49.67893052 45.76571737 49.72478526 48.15625 49.7734375 C49.26728088 49.7783168 49.26728088 49.7783168 50.40075684 49.78329468 C53.36629128 49.85441113 55.4948333 49.91326327 58.00195312 51.58447266 C59 53.25 59 53.25 58.8125 56.375 C58.544375 57.32375 58.27625 58.2725 58 59.25 C54.81175432 60.84412284 51.37103338 60.35174735 47.875 60.3125 C46.74384766 60.30573242 46.74384766 60.30573242 45.58984375 60.29882812 C43.72652873 60.28703499 41.86325445 60.26909942 40 60.25 C40.01571045 61.32483643 40.01571045 61.32483643 40.03173828 62.42138672 C40.07321299 65.65588905 40.09929892 68.89033553 40.125 72.125 C40.14175781 73.25292969 40.15851562 74.38085938 40.17578125 75.54296875 C40.18544922 77.15751953 40.18544922 77.15751953 40.1953125 78.8046875 C40.21102295 80.29718018 40.21102295 80.29718018 40.22705078 81.81982422 C40 84.25 40 84.25 38 86.25 C35 86.5625 35 86.5625 32 86.25 C29.76586987 82.89880481 29.76152238 81.8322245 29.8046875 77.92578125 C29.81113281 76.89775391 29.81757812 75.86972656 29.82421875 74.81054688 C29.84097656 73.73869141 29.85773437 72.66683594 29.875 71.5625 C29.88402344 70.47904297 29.89304688 69.39558594 29.90234375 68.27929688 C29.9259266 65.6026429 29.95883874 62.92643203 30 60.25 C29.2675708 60.27320313 28.5351416 60.29640625 27.78051758 60.3203125 C19.28294112 60.4779226 13.86644164 59.21641158 7.18359375 53.76953125 C1.76030651 47.82974046 0.89522035 39.49349465 -0.51464844 31.85595703 C-1.02699094 29.10507982 -1.57690404 26.36348143 -2.1328125 23.62109375 C-2.50650109 21.74765323 -2.87892219 19.87395939 -3.25 18 C-3.42547363 17.11932861 -3.60094727 16.23865723 -3.78173828 15.33129883 C-4.61958172 10.94297755 -5.41792822 6.73576289 -5 2.25 C-3 0.25 -3 0.25 0 0 Z " transform="translate(5,31.75)"/>
</svg>
