<?xml version="1.0" encoding="UTF-8"?>
<svg version="1.1" xmlns="http://www.w3.org/2000/svg" width="85" height="118">
<path d="M0 0 C3.39772555 2.75253859 4.57887489 4.89441589 5.4140625 9.1484375 C5.61773437 10.15519531 5.82140625 11.16195312 6.03125 12.19921875 C6.32515625 13.77123047 6.32515625 13.77123047 6.625 15.375 C6.82867187 16.38433594 7.03234375 17.39367187 7.2421875 18.43359375 C8.78351044 26.24889149 9.93304509 34.107477 11 42 C12.04454346 41.98428955 13.08908691 41.9685791 14.1652832 41.95239258 C18.03971652 41.89810303 21.91411619 41.8636537 25.78881836 41.83520508 C27.4659592 41.82011616 29.14306057 41.79964252 30.82006836 41.77368164 C33.23040504 41.73730189 35.64022019 41.72027514 38.05078125 41.70703125 C38.80087967 41.69154739 39.55097809 41.67606354 40.32380676 41.66011047 C45.55506493 41.6584183 45.55506493 41.6584183 47.65391541 43.26972961 C49.18708864 45.24048557 49.61272783 46.58523986 50.09082031 49.02490234 C50.25398743 49.82938812 50.41715454 50.6338739 50.58526611 51.46273804 C50.82923126 52.76122177 50.82923126 52.76122177 51.078125 54.0859375 C51.25382019 54.97987213 51.42951538 55.87380676 51.61053467 56.79483032 C51.97907647 58.6850446 52.34183107 60.57639509 52.69921875 62.46875 C53.24717489 65.36009302 53.81747287 68.24637109 54.390625 71.1328125 C54.74613972 72.97109397 55.10034981 74.80962833 55.453125 76.6484375 C55.62386536 77.51004486 55.79460571 78.37165222 55.97052002 79.2593689 C57.67573166 88.4423043 57.67573166 88.4423043 54.8125 92.8125 C52.11075568 94.58260835 50.15326426 94.39415803 47 94 C43.95891083 91.7243865 43.40130167 89.49010228 42.68359375 85.84375 C42.47669922 84.82023437 42.26980469 83.79671875 42.05664062 82.7421875 C41.75016602 81.13730469 41.75016602 81.13730469 41.4375 79.5 C41.22931641 78.46101563 41.02113281 77.42203125 40.80664062 76.3515625 C39.46032269 69.58198891 38.21529541 62.79418449 37 56 C35.84999512 55.99589111 34.69999023 55.99178223 33.51513672 55.98754883 C29.23197137 55.96571068 24.94971855 55.91137294 20.66699219 55.84741211 C18.81649549 55.82427281 16.96586785 55.80984595 15.11523438 55.80444336 C12.44839266 55.79512375 9.78359868 55.75407009 7.1171875 55.70703125 C6.29507782 55.7109639 5.47296814 55.71489655 4.62594604 55.71894836 C0.59687807 55.61752881 -2.20803934 55.27265183 -5.46923828 52.7902832 C-8.09326808 49.89716757 -8.92199822 48.42900978 -9.609375 44.6484375 C-9.80660156 43.63136719 -10.00382812 42.61429688 -10.20703125 41.56640625 C-10.47580078 39.98666016 -10.47580078 39.98666016 -10.75 38.375 C-11.04197266 36.83005859 -11.04197266 36.83005859 -11.33984375 35.25390625 C-11.91725055 32.1731116 -12.45912748 29.08738817 -13 26 C-13.53085765 23.16496032 -14.06264393 20.33012169 -14.59887695 17.49609375 C-15.27129687 13.31178382 -15.75586066 9.19502668 -15 5 C-10.61608923 -0.80571967 -6.94951978 -1.5849782 0 0 Z " transform="translate(28,23)"/>
<path d="M0 0 C3.00096032 3.00096032 3.08038113 6.72734546 3.8046875 10.76953125 C4.14415873 12.56322158 4.48401465 14.35683915 4.82421875 16.15039062 C5.35176084 18.98022455 5.87468341 21.81076054 6.39013672 24.64282227 C6.8905612 27.37512084 7.40902697 30.10352729 7.9296875 32.83203125 C8.15179398 34.0963372 8.15179398 34.0963372 8.37838745 35.38618469 C9.46549797 41.012747 10.96955891 44.76524482 15.75366211 48.29321289 C19.1169552 49.35143846 22.44989624 49.29843505 25.94140625 49.30859375 C27.50976956 49.3337404 29.07812884 49.35913861 30.64648438 49.38476562 C33.1109118 49.41356774 35.57526987 49.4375969 38.03979492 49.45629883 C40.42401781 49.47791528 42.80745438 49.51733356 45.19140625 49.55859375 C45.92895645 49.55870956 46.66650665 49.55882538 47.42640686 49.5589447 C52.49889936 49.65734774 52.49889936 49.65734774 54.99975586 51.36743164 C56 53 56 53 55.8125 55.5625 C55 58 55 58 53 60 C50.25514407 60.14507695 47.61519457 60.18652423 44.875 60.125 C44.12089844 60.11597656 43.36679687 60.10695312 42.58984375 60.09765625 C40.72642746 60.0740687 38.86317407 60.03819719 37 60 C37.01571045 61.02154175 37.01571045 61.02154175 37.03173828 62.0637207 C37.07328878 65.14660966 37.09932311 68.22943971 37.125 71.3125 C37.14175781 72.38435547 37.15851562 73.45621094 37.17578125 74.56054688 C37.18544922 76.10258789 37.18544922 76.10258789 37.1953125 77.67578125 C37.21102295 79.0975769 37.21102295 79.0975769 37.22705078 80.5480957 C37 83 37 83 35 86 C32.6568787 85.74438677 30.32156597 85.40729228 28 85 C26.72138385 82.44276771 26.88663391 80.63262898 26.90234375 77.7734375 C26.90556641 76.7421875 26.90878906 75.7109375 26.91210938 74.6484375 C26.92467773 73.02808594 26.92467773 73.02808594 26.9375 71.375 C26.94201172 70.28703125 26.94652344 69.1990625 26.95117188 68.078125 C26.96298224 65.38536211 26.97945222 62.69270812 27 60 C26.39744385 60.01232666 25.7948877 60.02465332 25.17407227 60.03735352 C24.37541748 60.04694092 23.5767627 60.05652832 22.75390625 60.06640625 C21.57163452 60.08489624 21.57163452 60.08489624 20.36547852 60.10375977 C13.81338524 59.81635759 8.52927633 56.66957755 3.86962891 52.19384766 C-2.26495766 44.99544143 -3.26802043 33.89331315 -4.92016602 24.82788086 C-5.31559206 22.67063122 -5.73209933 20.51815404 -6.15039062 18.36523438 C-6.41011677 16.97679809 -6.6686247 15.58813325 -6.92578125 14.19921875 C-7.15692627 12.96002686 -7.38807129 11.72083496 -7.6262207 10.4440918 C-8.00112701 6.98961542 -7.88825083 4.35279439 -7 1 C-4.48718205 -0.25640898 -2.78302919 -0.20872719 0 0 Z " transform="translate(8,31)"/>
<path d="M0 0 C3.37882179 2.3933321 4.67073608 4.03278722 6 7.9375 C6 11.81045073 5.14268559 13.78597162 3 17 C0.6964815 19.04025925 -0.87368593 19.92595943 -3.9609375 20.12890625 C-7.76203808 19.89575324 -9.54991352 19.40392376 -12.4375 16.8125 C-14.19347061 13.6517529 -14.92610639 11.62078671 -15 8 C-12.07897077 0.40532401 -7.71219819 -1.31242671 0 0 Z " transform="translate(23,0)"/>
</svg>
